<?xml version="1.0" encoding="utf-8"?>
<!-- Generator: Adobe Illustrator 26.0.0, SVG Export Plug-In . SVG Version: 6.00 Build 0)  -->
<svg version="1.1" id="圖層_1" xmlns="http://www.w3.org/2000/svg" xmlns:xlink="http://www.w3.org/1999/xlink" x="0px" y="0px"
	 viewBox="0 0 273.4 46" style="enable-background:new 0 0 273.4 46;" xml:space="preserve">
<style type="text/css">
	.st0{fill:#005232;}
	.st1{fill:#FAE58C;}
	.st2{fill:#055535;}
</style>
<g>
	<path class="st0" d="M5.9,31.9c0-1.8,0-3.7,0-5.5c0-0.1,0-0.2-0.2-0.4c-1.1-0.4-2.1-0.8-3.2-1.2c-0.4-0.1-0.7-0.2-0.9-0.4
		c-0.5-0.2-0.6-0.9-0.2-1.3c0.7-1.1,1.3-2.1,2-3.3c0.8-1.4,1.8-2.7,2.6-4.1c0.4-0.5,0.7-0.7,1.2-0.9c1.1-0.4,2.1-0.8,3.2-1.2
		c0.7-0.2,1.4-0.6,2.3-0.8c0.4-0.1,0.4-0.2,0.4-0.5c0.1-0.8,0.4-1.8,0.6-2.6c0.4-0.9,0.7-1.9,1.2-2.8c0.2-0.5,0.5-0.9,0.7-1.3
		c0.1-0.2,0.4-0.5,0.5-0.7c0.2-0.5,0.7-0.8,1.1-1.2c0.4-0.5,0.8-0.7,1.3-1.1c0.5-0.4,0.9-0.6,1.4-0.8c0.6-0.2,1.2-0.4,1.8-0.5
		c1.2-0.1,2.3-0.1,3.4,0.1c0.9,0.2,2,0.5,3,0.8c0.4,0.1,0.7,0.4,1.2,0.6c0.6,0.2,1.1,0.6,1.5,0.9c1.1,0.7,2,1.4,3,2.1
		c0.5,0.5,0.9,0.8,1.4,1.3c0.6,0.6,1.2,1.1,1.7,1.7c0.6,0.7,1.2,1.3,1.8,2c0.5,0.6,0.9,1.1,1.3,1.7c0.2,0.2,0.5,0.5,0.6,0.8
		c0.1,0.5,0.5,0.5,0.8,0.6c0.9,0.4,2,0.7,3,1.1c0.2,0.1,0.5,0.4,0.6,0.6c0.6,0.9,1.2,1.9,1.8,3c0.9,1.5,1.9,3.1,2.8,4.6
		c0.4,0.6,0.2,1.3-0.5,1.5c-1.3,0.5-2.6,0.9-3.9,1.4c-0.1,0-0.2,0.1-0.2,0.4c0,1.8,0,3.6,0,5.3s0,3.6,0,5.3c0,0.7-0.2,0.9-0.8,1.2
		c-1.1,0.4-2.1,0.8-3.2,1.2c-0.9,0.4-1.9,0.7-2.8,1.1c-1.1,0.4-2.1,0.7-3.1,1.2c-0.9,0.4-1.9,0.7-2.8,1.1c-1.1,0.4-2.1,0.8-3.2,1.2
		c-1.1,0.4-2,0.7-3.1,1.2c-0.2,0.1-0.5,0-0.7-0.1c-1.2-0.5-2.3-0.8-3.4-1.3c-1.3-0.5-2.5-0.9-3.8-1.4c-1.4-0.5-2.8-1.1-4.3-1.5
		c-1.3-0.5-2.6-0.9-4-1.4c-0.9-0.4-1.9-0.7-2.7-1.1C6,38.2,5.9,38,5.9,37.4C5.9,35.4,5.9,33.7,5.9,31.9z M26.2,34.6
		c0,2.6,0,5.3,0,7.9c0,0.2,0,0.2,0.2,0.2c0.5-0.2,0.9-0.4,1.5-0.6c1.1-0.4,2.1-0.8,3.2-1.2c0.9-0.4,1.9-0.7,2.8-1.1
		c0.9-0.4,1.9-0.7,2.8-1.1s1.9-0.7,2.8-1.1c0.8-0.4,1.8-0.6,2.6-0.9c0.1-0.1,0.2-0.1,0.2-0.4c0-3,0-6,0-9c0-0.5,0-0.5-0.5-0.4
		c-1.2,0.5-2.5,0.9-3.7,1.4c-1.3,0.5-2.6,0.9-3.8,1.4c-1.4,0.5-2.7,0.9-4.1,1.5c-0.6,0.2-1.1,0-1.3-0.5c-0.9-1.4-1.8-3-2.7-4.4
		c0-0.1-0.1-0.1-0.1-0.2c0,0-0.1-0.1-0.1,0v0.1v0.1C26.2,29.2,26.2,31.8,26.2,34.6z M24.3,34.4c0-2.6,0-5.3,0-7.9c0-0.1,0-0.1,0-0.2
		c-0.1,0-0.1,0.1-0.1,0.1c-0.9,1.4-1.9,3-2.7,4.4c-0.4,0.6-0.7,0.7-1.4,0.5c-0.9-0.4-1.9-0.7-2.8-1.1s-1.9-0.7-2.8-1.1
		c-0.9-0.4-1.9-0.7-2.8-1.1c-1.1-0.4-2.1-0.8-3.2-1.2C8.1,26.7,8,26.9,8,27c0,3.1,0,6.2,0,9.1c0,0.1,0,0.1,0,0.2
		c0,0.1,0,0.1,0.1,0.2c0.2,0.1,0.5,0.2,0.7,0.2c0.9,0.4,1.9,0.7,2.8,1.1c1.1,0.4,2.1,0.8,3.2,1.2c1.1,0.4,2.1,0.8,3.2,1.2
		c0.9,0.4,2,0.7,3,1.1c1.1,0.4,2.1,0.8,3.2,1.2c0.2,0.1,0.2,0.1,0.2-0.2C24.3,39.8,24.3,37.2,24.3,34.4z M7.3,17.1
		c-0.1,0-0.1,0.1-0.2,0.2c-0.9,1.5-2,3.2-3,4.7c-0.2,0.4-0.5,0.7-0.6,1.1c0,0.1-0.1,0.1,0,0.2c0.7,0.2,1.4,0.6,2.1,0.8
		c0.8,0.4,1.8,0.6,2.6,0.9s1.8,0.6,2.6,0.9c0.8,0.4,1.8,0.6,2.6,0.9c0.8,0.2,1.5,0.6,2.4,0.8c0.7,0.2,1.4,0.5,2.1,0.8
		c0.6,0.2,1.2,0.5,1.8,0.7c0.1,0,0.2,0,0.4-0.1c0.1-0.4,0.4-0.6,0.6-0.8c0.9-1.7,2-3.2,3-4.9c0.1-0.2,0.1-0.2-0.1-0.4
		c-0.6-0.2-1.2-0.5-1.8-0.7c-0.8-0.2-1.5-0.6-2.4-0.8c-0.7-0.2-1.4-0.5-2.1-0.8c-0.7-0.2-1.3-0.5-2-0.7c-0.4-0.1-0.8-0.2-1.2-0.4
		c-0.4-0.1-0.7-0.2-1.2-0.5c-0.1-0.1-0.4-0.1-0.5-0.2c-0.4-0.2-0.8-0.4-1.2-0.5c-1.1-0.4-2.1-0.8-3.2-1.2
		C7.8,17.4,7.6,17.3,7.3,17.1z M47,23.2c-0.1-0.1-0.1-0.2-0.2-0.4c-1.2-1.8-2.3-3.7-3.4-5.5c-0.1-0.1-0.2-0.2-0.4-0.1
		c-0.7,0.2-1.5,0.6-2.3,0.8c-0.9,0.4-1.9,0.7-2.8,1.1c-0.9,0.4-1.9,0.7-3,1.1c-0.8,0.4-1.8,0.6-2.6,0.9c-0.8,0.4-1.7,0.6-2.6,0.9
		c-0.9,0.4-1.9,0.7-2.8,1.1c-0.2,0.1-0.2,0.1-0.1,0.4c0.4,0.6,0.7,1.2,1.1,1.7c0.8,1.3,1.7,2.6,2.5,3.9c0.1,0.1,0.2,0.2,0.4,0.1
		c0.6-0.2,1.1-0.4,1.7-0.6c1.2-0.5,2.5-0.9,3.7-1.3c1.1-0.4,2-0.8,3.1-1.2c0.9-0.4,2-0.7,3-1.1c0.8-0.2,1.5-0.6,2.4-0.8
		c0.8-0.4,1.7-0.6,2.5-0.9C46.9,23.3,47,23.3,47,23.2z M27.5,5.6c-0.6,0-1.1,0.1-1.5,0.4c-0.6,0.4-1.1,0.8-1.4,1.4
		c-0.5,1.1-0.7,2.3-0.6,3.4c0,0.7,0.1,1.3,0.4,2c0.2,0.6,0.4,1.3,0.6,1.9c0.2,0.6,0.4,1.2,0.5,1.7c0.2,0.6,0.5,1.2,0.7,1.8
		c0.1,0.2,0.2,0.5,0.2,0.7c0,0.1,0,0.2,0.2,0.1c0.8-0.5,1.7-0.9,2.4-1.3c0.8-0.5,1.5-0.8,2.4-1.3c0.7-0.4,1.3-0.7,2-1.1
		s1.4-0.7,2-1.2c0.5-0.2,1.1-0.6,1.5-0.8c0.1-0.1,0.2-0.1,0.1-0.4c-0.1-0.1-0.2-0.4-0.2-0.5c-0.8-1.2-1.8-2.4-2.7-3.4
		c-0.7-0.7-1.4-1.3-2.1-2c-0.6-0.5-1.3-0.8-2-1.2C28.9,5.9,28.2,5.6,27.5,5.6z M41,16.1c-0.9-0.4-1.9-0.7-2.8-1.1
		c-0.1,0-0.2,0-0.2,0c-1.5,0.8-3.1,1.8-4.7,2.6c-2.3,1.3-4.5,2.5-6.8,3.8c0,0-0.1,0-0.1,0.1C31.1,19.6,36,17.8,41,16.1z M15,13.8
		c0,0.2,0.1,0.6,0.1,0.9c0,0.2,0.1,0.2,0.4,0.2c0.1,0,0.1,0,0.2,0c0.6-0.1,1.2-0.2,1.8-0.4c0.4,0,0.6-0.1,0.9-0.1
		c0.5-0.1,0.8-0.1,1.3-0.2c0.2,0,0.2-0.1,0.2-0.2c0-0.2-0.1-0.5-0.1-0.7c-0.1-0.5-0.4-0.9-0.6-1.4c-0.2-0.5-0.7-0.9-1.2-1.3
		c-0.1-0.1-0.4-0.1-0.6-0.1c-0.4,0-0.7,0.2-1.1,0.4c-0.6,0.4-0.9,0.9-1.2,1.5C15.1,13,15,13.3,15,13.8z M19.9,2.7
		c0,0.4,0,0.8,0.1,1.2c0.1,0.5,0.1,0.9,0.2,1.4c0.1,0.6,0.2,1.2,0.4,1.7c0.1,0.5,0.2,0.9,0.4,1.4c0.1,0.4,0.2,0.7,0.4,1.2
		c0.1,0.5,0.2,0.9,0.4,1.3c0.1,0.5,0.4,1.1,0.5,1.5s0.4,1.1,0.5,1.5c0.2,0.6,0.4,1.2,0.5,1.8c0.1,0.6,0.4,1.1,0.6,1.7
		c0.1,0.5,0.2,0.8,0.5,1.3c0.2,0.6,0.4,1.2,0.6,1.7c0.1,0.5,0.2,0.8,0.5,1.3c0,0.1,0.1,0.1,0.2,0.1s0.1-0.1,0.1-0.2
		c-0.1-0.2-0.1-0.5-0.2-0.7c-0.1-0.5-0.4-0.9-0.5-1.4c-0.1-0.4-0.2-0.8-0.4-1.2c-0.2-0.5-0.4-1.1-0.5-1.5c-0.2-0.7-0.5-1.4-0.6-2
		c-0.1-0.6-0.4-1.2-0.6-1.8c-0.1-0.6-0.4-1.2-0.5-1.8c-0.1-0.2-0.1-0.6-0.2-0.8C22,9.8,21.9,9.4,21.8,9c-0.1-0.4-0.2-0.8-0.4-1.2
		c-0.1-0.5-0.2-1.1-0.4-1.5c-0.1-0.6-0.2-1.1-0.4-1.7c-0.1-0.9-0.4-1.8-0.2-2.7c0,0,0.1-0.1,0-0.2c-0.1,0-0.2,0-0.2,0.1
		c0,0.1,0,0.2,0,0.2C19.9,2.3,19.9,2.6,19.9,2.7z M12.4,15.2c0-0.2,0-0.2-0.1-0.1c-0.8,0.4-1.5,0.6-2.4,0.9c0,0-0.1,0-0.1,0.1
		s0.1,0.1,0.1,0.1c0.7,0.2,1.5,0.6,2.3,0.8c0.1,0.1,0.2,0,0.2-0.1C12.4,16.3,12.4,15.7,12.4,15.2z"/>
	<path class="st1" d="M26.2,34.6c0-2.6,0-5.2,0-7.9v-0.1v-0.1h0.1c0,0.1,0.1,0.1,0.1,0.2c0.9,1.4,1.8,3,2.7,4.4
		c0.4,0.5,0.7,0.7,1.3,0.5c1.4-0.5,2.7-1.1,4.1-1.5c1.3-0.5,2.6-0.9,3.8-1.4c1.2-0.5,2.5-0.9,3.7-1.4c0.5-0.1,0.5-0.1,0.5,0.4
		c0,3,0,6,0,9c0,0.2,0,0.2-0.2,0.4c-0.8,0.4-1.8,0.6-2.6,0.9c-0.9,0.4-1.9,0.7-2.8,1.1c-0.9,0.4-1.9,0.7-2.8,1.1
		c-0.9,0.4-1.9,0.7-2.8,1.1c-1.1,0.4-2.1,0.8-3.2,1.2c-0.5,0.2-0.9,0.4-1.5,0.6c-0.2,0.1-0.2,0.1-0.2-0.2
		C26.2,39.8,26.2,37.2,26.2,34.6z"/>
	<path class="st1" d="M24.3,34.4c0,2.6,0,5.3,0,7.9c0,0.2,0,0.2-0.2,0.2c-1.1-0.4-2.1-0.8-3.2-1.2c-0.9-0.4-1.9-0.7-3-1.1
		c-1.1-0.4-2.1-0.8-3.2-1.2c-1.1-0.4-2.1-0.8-3.2-1.2c-0.9-0.4-1.9-0.7-2.8-1.1c-0.2-0.1-0.5-0.2-0.7-0.2c-0.1,0-0.1-0.1-0.1-0.2
		c0-0.1,0-0.1,0-0.2c0-3.1,0-6.2,0-9.1c0-0.2,0-0.2,0.2-0.1c1.1,0.4,2.1,0.8,3.2,1.2c0.9,0.4,1.9,0.7,2.8,1.1
		c0.9,0.4,1.9,0.7,2.8,1.1c0.9,0.4,1.9,0.7,2.8,1.1c0.7,0.2,1.1,0.1,1.4-0.5c0.9-1.4,1.8-3,2.7-4.4c0,0,0-0.1,0.1-0.1
		c0.1,0,0,0.1,0,0.2C24.3,29.2,24.3,31.8,24.3,34.4z"/>
	<path class="st1" d="M7.3,17.1c0.2,0.1,0.5,0.1,0.7,0.2c1.1,0.4,2.1,0.8,3.2,1.2c0.4,0.1,0.8,0.4,1.2,0.5c0.1,0.1,0.4,0.1,0.5,0.2
		c0.4,0.1,0.7,0.4,1.2,0.5c0.4,0.1,0.8,0.2,1.2,0.4c0.7,0.2,1.3,0.5,2,0.7s1.4,0.5,2.1,0.8c0.8,0.2,1.5,0.6,2.4,0.8
		c0.6,0.2,1.2,0.5,1.8,0.7c0.2,0.1,0.2,0.1,0.1,0.4c-0.9,1.7-2,3.2-3,4.9c-0.2,0.2-0.4,0.6-0.6,0.8c-0.1,0.1-0.1,0.1-0.4,0.1
		c-0.6-0.2-1.2-0.5-1.8-0.7c-0.7-0.2-1.4-0.5-2.1-0.8c-0.8-0.2-1.5-0.6-2.4-0.8c-0.8-0.4-1.8-0.6-2.6-0.9c-0.8-0.4-1.8-0.6-2.6-0.9
		c-0.8-0.4-1.8-0.6-2.6-0.9c-0.7-0.2-1.4-0.6-2.1-0.8c-0.1,0-0.1-0.1,0-0.2C3.8,22.7,4,22.4,4.1,22c0.9-1.5,2-3.2,3-4.7
		C7.2,17.3,7.2,17.1,7.3,17.1z"/>
	<path class="st1" d="M47,23.2c0,0.1,0,0.1-0.1,0.1c-0.8,0.4-1.7,0.6-2.5,0.9c-0.8,0.2-1.5,0.6-2.4,0.8c-0.9,0.4-2,0.7-3,1.1
		c-1.1,0.4-2,0.8-3.1,1.2c-1.2,0.5-2.5,0.9-3.7,1.3c-0.6,0.2-1.1,0.4-1.7,0.6c-0.1,0.1-0.2,0-0.4-0.1c-0.8-1.3-1.7-2.6-2.5-3.9
		c-0.4-0.6-0.7-1.2-1.1-1.7c-0.1-0.2-0.1-0.2,0.1-0.4c0.9-0.4,1.9-0.7,2.8-1.1c0.8-0.4,1.7-0.6,2.6-0.9c0.8-0.4,1.8-0.6,2.6-0.9
		c0.9-0.4,1.9-0.7,3-1.1c0.9-0.4,1.9-0.7,2.8-1.1c0.8-0.2,1.5-0.6,2.3-0.8c0.1,0,0.2,0,0.4,0.1c1.2,1.8,2.3,3.7,3.4,5.5
		C46.9,22.9,46.9,23.1,47,23.2z"/>
	<path class="st1" d="M41,16.1c-5,1.8-9.8,3.6-14.7,5.3c0-0.1,0-0.1,0.1-0.1c2.3-1.3,4.5-2.5,6.8-3.8c1.5-0.8,3.1-1.8,4.7-2.6
		c0.1,0,0.1-0.1,0.2,0C39.1,15.4,40,15.6,41,16.1z"/>
	<path class="st1" d="M12.4,15.2c0,0.5-0.1,1.1-0.1,1.7c0,0.1,0,0.2-0.2,0.1c-0.7-0.2-1.5-0.6-2.3-0.8c0,0-0.1,0-0.1-0.1
		S9.8,16,9.8,16c0.8-0.4,1.5-0.6,2.4-0.9C12.4,15,12.5,15,12.4,15.2z"/>
</g>
<path class="st2" d="M63.6,3.6c-0.2,2.9-0.5,4.4-4.3,5.2c0.3,0.3,0.8,1,1.1,1.6h-7.7c1.1-0.5,2-1,2.6-1.6c1,0.5,1.8,1.1,2.5,1.6
	L59.3,9c-0.7-0.5-2-1.3-2.9-1.8c0.3-1,0.5-2.1,0.5-3.4h-2.1c-0.2,2.9-0.7,4.6-4.3,5.4c0.3,0.3,0.8,1,1,1.5h-0.3v4.1h2.5v-2.5h13.1
	v2.1h2.5v-4.1h-0.8L69.5,9c-1-0.7-2.6-1.5-4.1-2.1c0.3-1,0.5-2,0.5-3.4h-2.3 M61.4,10.3c1.3-0.5,2.3-1,2.8-1.6
	c1,0.5,2.1,1.1,2.9,1.6H61.4z M60.5,17.2h5.4v-4.1H54.6v4.1h3.6C58,17.6,58,17.9,57.8,18h-4.9v5.2h2.3v-0.5h10v0.5h2.5V18h-7.9
	L60.5,17.2z M56.7,14.6h6.5v1.1h-6.5V14.6z M65.4,21h-10v-1.1h10V21z M54.1,5.9c-0.3-0.5-1.1-1.3-1.6-2L51,5.1
	c0.5,0.7,1.3,1.5,1.6,2.1L54.1,5.9z M58.3,7.2c0.5-0.5,1.1-1.1,1.8-2c0.5,0.7,1.1,1.3,1.3,1.8l1.5-1.3c-0.3-0.5-1.1-1.3-1.6-2
	l-1.5,1.3l-1.6-0.5c-0.3,0.7-0.8,1.5-1.3,2.1L58.3,7.2z M67.3,4.5C67,5.1,66.5,6.1,66,6.7l1.5,0.7c0.5-0.5,1.3-1.3,2-2.1L67.3,4.5z"
	/>
<path class="st2" d="M90.6,17.4h-7.9c2.1-0.7,4.1-1.5,5.9-2.3L87,13.8l-0.5,0.2H73.9v1.6h8.7c-0.8,0.3-1.8,0.7-2.6,0.8l0,0l0,0v0.8
	h-8v2.1h8v1.3c0,0.3-0.2,0.3-0.5,0.5c-0.3,0-2,0-3.3,0c0.3,0.5,0.7,1.5,0.8,2c1.8,0,3.3,0,4.3-0.3c1-0.3,1.3-0.8,1.3-2.1v-1.5h8.2
	v-1.8 M88,12.8V8.2H74.4v4.6H88z M77,10h8.5v1.1H77C77,11.2,77,10,77,10z M90.3,5.1h-7.7c-0.2-0.7-0.5-1.1-0.7-1.6L79.3,4
	c0.2,0.3,0.3,0.8,0.5,1.3h-7.7v2.1h18.3V5.1H90.3z"/>
<path class="st2" d="M125.5,19.7c-0.7-0.7-2-1.3-3.3-2.1c0.8-0.8,1.6-1.8,2.5-2.8l-2-1.1c-0.5,0.8-1.3,2-2,2.9l-0.5-0.3v-2.8h5.1
	v-2.1h-2.9c0.3-1.8,0.8-3.9,1.1-5.7l-1.6-0.2l-0.3,0.2h-3.6c0.2-0.5,0.3-1,0.3-1.5L116,4c-0.5,2.1-1.1,4.9-1.8,6.7h6.2l-0.2,1h-7
	v2.1h4.9v2.9c-1.8,1.1-3.6,2.1-4.7,2.8c-0.2-0.8-0.5-1.8-0.8-2.6l-2,0.3c0.5,1.3,1,2.9,1.1,4.1l1.6-0.7c0-0.3-0.2-0.7-0.3-1l1.1,1.6
	c1.1-0.7,2.3-1.6,3.6-2.5V21c0,0.2,0,0.3-0.3,0.3c-0.2,0-1,0-1.6,0c0.3,0.7,0.7,1.5,0.7,2.1c1.1,0,2.1,0,2.8-0.3
	c0.7-0.3,0.8-1,0.8-2v-2.3c1.5,1,3.1,2.1,3.9,2.8L125.5,19.7 M116.8,8.4c0.2-0.3,0.2-0.8,0.3-1.1h3.6l-0.2,1.1H116.8z M108.4,17.7
	c0.2,1.3,0.5,3.3,0.5,4.4l1.8-0.5c-0.2-1.1-0.3-2.9-0.7-4.4L108.4,17.7z M106.1,17.4c-0.2,1.6-0.5,3.4-0.8,4.7
	c0.5,0.2,1.3,0.3,1.8,0.5c0.3-1.3,0.7-3.3,0.8-4.9L106.1,17.4z M117.1,15.9c-0.5-0.7-1.6-1.5-2.5-2.1l-1.3,1.3
	c0.8,0.7,2,1.8,2.5,2.5L117.1,15.9z M113.5,15.9c-0.3-1.1-0.8-2.8-1.5-4.1l-1.6,0.5c0.2,0.5,0.3,1,0.5,1.6l-2,0.2
	c1.6-2,3.1-4.3,4.4-6.5l-2-1.1c-0.5,1-1,2-1.5,2.9l-1.5,0.2c1-1.5,2-3.3,2.6-4.9l-2.1-0.8c-0.7,2.1-1.8,4.4-2.3,5.1
	c-0.3,0.7-0.7,1-1.1,1.1c0.2,0.7,0.7,1.6,0.7,2.1c0.3-0.2,0.8-0.3,2.3-0.5c-0.5,0.8-1,1.5-1.3,1.8c-0.7,0.8-1.1,1.3-1.6,1.5
	c0.3,0.7,0.7,1.6,0.7,2.1c0.5-0.2,1.1-0.5,5.2-1.1c0.2,0.3,0.2,0.7,0.2,1L113.5,15.9z"/>
<path class="st2" d="M134.1,20.7c-2.3,0-2.6-0.2-2.6-1.5v-2.5h10.2v0.7h2.5V9.5h-5.1c1-1,1.8-2.1,2.6-3.1L140,5.3l-0.5,0.2h-4.9
	c0.2-0.3,0.3-0.7,0.5-1l-2.3-0.8c-1.5,2.6-3.9,5.1-6.4,6.5c0.5,0.5,1.1,1.8,1.3,2.5c0.3-0.3,0.8-0.7,1.3-1v7.7
	c0,2.9,1.1,3.8,5.1,3.8h7.2c3.6,0,4.4-1,4.9-4.4c-0.7-0.2-1.8-0.5-2.3-0.8c-0.3,2.6-0.7,3.1-2.6,3.1h-7.2 M131.5,11.8h3.9v2.5h-3.9
	V11.8z M141.7,14.3h-3.8v-2.5h3.8V14.3z M137.7,7.4c-0.5,0.7-1.1,1.5-1.8,2h-4.7c0.7-0.7,1.1-1.3,1.8-2H137.7z"/>
<path class="st2" d="M164.8,12.6l-0.3,0.2h-3.1c0.2-0.2,0.3-0.3,0.3-0.7l-1.8-0.3c-0.7,1.1-1.8,2.3-3.6,3.1v-2.5h-7v4.3h2.6V21
	l-1,0.2v-3.9H149V21h-1l0.2,2c2.3-0.2,5.6-0.5,8.7-0.8v-1.8c-1,0.2-2,0.2-2.9,0.2V19h2.5v-1.1c0.3,0.3,0.7,0.8,0.7,1.1
	c0.3-0.2,0.8-0.2,1.1-0.3V23h2.1v-0.5h2.8v0.3h2.1v-3.9c0.3,0.2,0.7,0.2,1,0.2c0.3-0.5,0.8-1.3,1.3-1.8c-1.5-0.2-2.9-0.5-4.1-1
	c1-0.8,2-1.8,2.6-2.9L164.8,12.6 M163.1,14.3c-0.5,0.5-1,0.8-1.5,1.3c-0.7-0.3-1.1-0.8-1.6-1.3H163.1z M151.2,14.1h2.9v1.1h-2.9
	V14.1z M156.3,17.7h-2.5v-1h2.3v-1.6c0.3,0.3,1,0.8,1.1,1.1c0.5-0.3,1-0.7,1.5-1c0.3,0.5,0.7,0.8,1.1,1.1
	C158.9,17.1,157.6,17.4,156.3,17.7L156.3,17.7z M160.2,21.3V20h2.8v1.3H160.2z M159.5,18.5c0.7-0.3,1.5-0.7,2.1-1
	c0.7,0.3,1.5,0.8,2.3,1H159.5z M151.2,12.3l4.6-1l-0.2-1.3l-0.7,0.2l0.5-1.1c-0.8-0.3-2.5-0.7-3.6-1l-0.7,1.1c1,0.2,2.5,0.7,3.3,1
	c-1.5,0.2-2.8,0.3-3.9,0.5V8.1h5.6v4.3h2.5V8.2h4.3c-1,0.3-2.5,1-3.4,1.1l0.5,0.7h-0.5l-0.5,1.3c1.6,0.3,3.8,0.8,4.9,1.1l0.3-1.3
	c-0.8-0.3-2.3-0.7-3.4-0.8c1-0.2,2.1-0.5,2.9-0.8l-0.8-1.1h1.3v2.8h2.6V6.9h-8.2V5.8h7V4.3h-16.4v1.5h6.9v0.8h-7.9v4.3h2.5
	L151.2,12.3z"/>
<path class="st2" d="M182,3.6c-0.2,2.9-0.5,4.4-4.3,5.2c0.3,0.3,0.8,1,1.1,1.6h-7.7c1.1-0.5,2-1,2.6-1.6c1,0.5,1.8,1.1,2.5,1.6
	l1.5-1.5c-0.7-0.5-2-1.3-2.9-1.8c0.3-1,0.5-2.1,0.5-3.4h-2.1c-0.2,2.9-0.7,4.6-4.3,5.4c0.3,0.3,0.8,1,1,1.5h-0.3v4.1h2.5v-2.5h13.1
	v2.1h2.5v-4.1h-0.8l1.1-1.3c-1-0.7-2.6-1.5-4.1-2.1c0.3-1,0.5-2,0.5-3.4H182 M179.8,10.3c1.3-0.5,2.3-1,2.8-1.6
	c1,0.5,2.1,1.1,2.9,1.6H179.8z M178.7,17.2h5.4v-4.1h-11.3v4.1h3.6c-0.2,0.3-0.2,0.7-0.3,0.8h-4.9v5.2h2.3v-0.5h10v0.5h2.5V18H178
	L178.7,17.2z M175.1,14.6h6.5v1.1h-6.5V14.6z M183.6,21h-10v-1.1h10V21z M172.3,5.9c-0.3-0.5-1.1-1.3-1.6-2l-1.5,1.1
	c0.5,0.7,1.3,1.5,1.6,2.1L172.3,5.9z M176.6,7.2c0.5-0.5,1.1-1.1,1.8-2c0.5,0.7,1.1,1.3,1.3,1.8l1.5-1.3c-0.3-0.5-1.1-1.3-1.6-2
	L178,4.9l-1.6-0.5c-0.3,0.7-0.8,1.5-1.3,2.1L176.6,7.2z M185.7,4.5c-0.3,0.7-0.8,1.6-1.3,2.3l1.5,0.7c0.5-0.5,1.3-1.3,2-2.1
	L185.7,4.5z"/>
<path class="st2" d="M204.4,14.1V10h3.9V7.6h-3.9V3.6h-2.6v3.9h-4.9V3.6h-2.6v3.9h-3.8V10h3.8v4.1h-4.6v2.5h19.2v-2.5H204.4 M197,10
	h4.9v4.1H197V10z M200.8,18.5c1.8,1.5,4.4,3.4,5.6,4.7l2.5-1.5c-1.3-1.3-3.9-3.3-5.7-4.6L200.8,18.5z M195.4,17.4
	c-1.1,1.5-3.3,3.1-5.2,4.3c0.7,0.3,1.5,1.1,2.1,1.8c2-1.1,4.3-3.1,5.9-4.9L195.4,17.4z"/>
<path class="st2" d="M229.9,17.4h-8c2.1-0.7,4.1-1.5,5.9-2.3l-1.6-1.3l-0.5,0.2h-12.6v1.6h8.7c-0.8,0.3-1.8,0.7-2.6,0.8l0,0l0,0v0.8
	h-8v2.1h8v1.3c0,0.3-0.2,0.3-0.5,0.5c-0.3,0-2,0-3.3,0c0.3,0.5,0.7,1.5,0.8,2c1.8,0,3.3,0,4.3-0.3c1-0.3,1.3-0.8,1.3-2.1v-1.5h8.2
	L229.9,17.4 M227.3,12.8V8.2h-13.6v4.6H227.3z M216.2,10h8.5v1.1h-8.5V10z M229.6,5.1h-7.7c-0.2-0.7-0.5-1.1-0.7-1.6L218.6,4
	c0.2,0.3,0.3,0.8,0.5,1.3h-7.7v2.1h18.2L229.6,5.1L229.6,5.1z"/>
<path class="st2" d="M246.6,13.1c0.7-1.1,1.5-2.8,2.3-4.4l-2.6-0.7c-0.3,1.3-1.1,3.3-1.8,4.4L246.6,13.1 M234.4,8.7
	c0.7,1.5,1.3,3.3,1.5,4.4l2.5-0.8c-0.2-1.1-1-2.9-1.6-4.3L234.4,8.7z M251.1,13.8h-8.2V7.4h7V4.9h-16.7v2.5h7v6.4h-8.2v2.6h8.2v6.9
	h2.6v-6.9h8.2L251.1,13.8L251.1,13.8z"/>
<path class="st2" d="M264.2,6.9c0.8,0.8,1.6,1.6,2.5,2.6l-8.7,0.3c1.6-1.5,3.3-3.4,4.6-5.4l-2.5-1.1c-1.5,2.5-3.8,5.1-4.4,5.7
	s-1.1,1.1-1.8,1.1c0.3,0.7,0.7,2,0.8,2.5c1.1-0.3,2.6-0.5,13.8-1c0.5,0.7,0.8,1.1,1.1,1.6l2.1-1.5c-1.1-1.8-3.6-4.4-5.6-6.2
	L264.2,6.9 M255.3,23.3h2.6v-1.1h8.8v1h2.6v-9.2h-14.1V23.3z M266.8,16.4v3.4h-8.8v-3.4H266.8z"/>
<g>
	<path class="st2" d="M94.2,43.2c-1.9,0-3.7-0.6-5-2.2c-1.2-1.2-1.9-3.1-1.9-5.6c0-2.5,0.6-4.3,2.2-5.9c1.2-1.2,2.8-1.9,4.7-1.9
		c1.6,0,3.1,0.6,4.3,1.9l0,0L97,31.4c-0.9-0.9-1.9-1.2-2.8-1.2c-1.2,0-2.5,0.6-3.1,1.9c-0.6,0.9-0.9,1.9-0.9,3.4
		c0,2.2,0.6,3.7,1.9,4.3c0.6,0.3,1.2,0.6,2.2,0.6c1.2,0,2.2-0.6,3.1-1.6l1.6,1.9C97.6,42.6,96,43.2,94.2,43.2z"/>
	<path class="st2" d="M107.8,43.2c-2.2,0-3.7-0.9-5-2.5c-0.9-1.2-1.6-3.1-1.6-5.3c0-2.8,0.9-4.7,2.5-6.2c1.2-0.9,2.5-1.6,4-1.6
		c2.2,0,4,0.9,5,2.5c0.9,1.2,1.6,3.1,1.6,5.3c0,2.8-0.6,4.7-2.2,6.2C110.9,42.6,109.7,43.2,107.8,43.2z M107.8,40.7
		c1.2,0,2.2-0.6,3.1-1.9c0.3-0.9,0.6-1.9,0.6-3.1c0-2.2-0.6-3.7-1.6-4.3c-0.6-0.3-1.2-0.6-1.9-0.6c-1.2,0-2.5,0.6-3.1,2.2
		c-0.3,0.9-0.6,1.9-0.6,3.1c0,2.2,0.6,3.7,1.6,4.3C106.6,40.4,107.2,40.7,107.8,40.7z"/>
	<path class="st2" d="M123,38.2V36h5.6v2.2H123z"/>
	<path class="st2" d="M143.5,43.2c-1.9,0-3.7-0.6-5-2.2c-1.2-1.2-1.9-3.1-1.9-5.6c0-2.5,0.6-4.3,2.2-5.9c1.2-1.2,2.8-1.9,4.7-1.9
		c1.6,0,3.1,0.6,4.3,1.9l0,0l-1.6,1.9c-0.9-0.9-1.9-1.2-2.8-1.2c-1.2,0-2.5,0.6-3.1,1.9c-0.6,0.9-0.9,1.9-0.9,3.4
		c0,2.2,0.6,3.7,1.9,4.3c0.6,0.3,1.2,0.6,2.2,0.6c1.2,0,2.2-0.6,3.1-1.6l1.6,1.9C147.2,42.6,145.7,43.2,143.5,43.2z"/>
	<path class="st2" d="M159.6,42.9l-0.9-3.7H154l-0.9,3.7H150l4.7-14.6h3.4l4.7,14.6H159.6z M154.4,37h3.4l-0.3-1.6
		c0,0-0.3-1.6-0.9-4c0-0.3,0-0.6-0.3-0.9l0,0c-0.3,1.6-0.6,3.1-1.2,5L154.4,37z"/>
	<path class="st2" d="M165.5,42.9V28.3h3.4l2.5,6.8c0.3,0.6,0.6,1.6,0.9,2.8l0,0c0-0.3,0.3-0.6,0.3-1.2c0.3-0.6,0.3-1.2,0.6-1.6
		l2.5-6.8h3.4v14.6h-2.8v-6.2c0-0.6,0-2.5,0.3-5l0,0l-1.2,3.4l-2.2,6.2h-1.6l-2.2-6.2l-1.9-3.1l0,0c0.3,2.5,0.3,4,0.3,5v6.2h-2.5
		V42.9z"/>
	<path class="st2" d="M183.2,42.9V28.3h5c3.7,0,5.9,1.6,5.9,4.7c0,2.2-0.9,3.4-2.5,4.3c-0.9,0.3-1.9,0.6-3.1,0.6h-2.2v5.3h-3.1V42.9
		z M186.3,35.4h1.9c1.9,0,3.1-0.9,3.1-2.5c0-1.2-0.6-1.9-1.6-2.2c-0.3,0-0.9,0-1.6,0h-1.9V35.4z"/>
	<path class="st2" d="M197.5,42.9V28.3h3.1v14.6H197.5z"/>
	<path class="st2" d="M205.2,42.9V28.3h3.1l4.3,7.8l1.6,3.1l0,0c-0.3-2.5-0.3-4.3-0.3-5.3V28h2.8v14.6h-3.1l-4.3-7.8l-1.6-3.1l0,0
		c0,0.3,0,0.6,0,1.2c0.3,1.9,0.3,3.1,0.3,4v5.9H205.2z"/>
	<path class="st2" d="M227.2,43.2c-2.2,0-4-0.6-5.3-2.2c-1.2-1.2-1.9-3.1-1.9-5.3c0-2.5,0.9-4.7,2.5-5.9c1.2-1.2,2.8-1.9,4.7-1.9
		s3.4,0.6,4.7,1.9l-1.6,1.9c-0.9-0.9-1.9-1.2-2.8-1.2c-1.6,0-2.5,0.6-3.4,1.9c-0.6,0.9-0.9,1.9-0.9,3.1c0,2.5,0.9,4,2.5,4.7
		c0.6,0.3,1.2,0.3,1.9,0.3c0.9,0,1.6-0.3,1.9-0.6V37h-2.5v-2.5h5.3v6.8c-0.9,0.9-2.2,1.6-3.7,1.6C228.2,43.2,227.6,43.2,227.2,43.2z
		"/>
</g>
<path class="st2" d="M95.1,13.4v-2h5.3v2H95.1z"/>
</svg>
